<svg xmlns="http://www.w3.org/2000/svg" width="980" height="360" viewBox="0 0 980 360" role="img" aria-labelledby="title desc">
  <title id="title">Flujo de verificación de hardware para Artify</title>
  <desc id="desc">Diagrama que representa el proceso para verificar requisitos, comparar recursos, revisar software y definir cumplimiento.</desc>
  <defs>
    <style>
      .bg { fill: #eef3f8; }
      .panel { fill: #fbfdff; stroke: #c9d7e6; stroke-width: 2; }
      .identify { fill: #eef7ff; stroke: #78aeda; stroke-width: 2; }
      .compare { fill: #fff7ed; stroke: #e59a2f; stroke-width: 2; }
      .validate { fill: #f1f5ff; stroke: #8b9fe6; stroke-width: 2; }
      .final { fill: #ecfdf5; stroke: #35a979; stroke-width: 2; }
      .num { font: 700 18px Arial, Helvetica, sans-serif; fill: #ffffff; }
      .bubble-blue { fill: #3f7fab; }
      .bubble-amber { fill: #b7791f; }
      .bubble-violet { fill: #6673c7; }
      .bubble-green { fill: #278a66; }
      .title { font: 700 16px Arial, Helvetica, sans-serif; fill: #172033; }
      .text { font: 13px Arial, Helvetica, sans-serif; fill: #42546a; }
      .arrow { stroke: #526a83; stroke-width: 2.5; fill: none; marker-end: url(#arrowhead); }
    </style>
    <marker id="arrowhead" markerWidth="10" markerHeight="8" refX="9" refY="4" orient="auto">
      <path d="M0,0 L10,4 L0,8 Z" fill="#526a83" />
    </marker>
  </defs>

  <rect class="bg" x="0" y="0" width="980" height="360" rx="18" />
  <rect class="panel" x="42" y="52" width="896" height="256" rx="18" />

  <rect class="identify" x="82" y="118" width="168" height="124" rx="14" />
  <circle class="bubble-blue" cx="166" cy="146" r="18" />
  <text class="num" x="166" y="152" text-anchor="middle">1</text>
  <text class="title" x="166" y="184" text-anchor="middle">Identificar</text>
  <text class="text" x="166" y="212" text-anchor="middle">Arquitectura, usuarios</text>
  <text class="text" x="166" y="232" text-anchor="middle">y datos persistentes</text>

  <rect class="compare" x="298" y="118" width="168" height="124" rx="14" />
  <circle class="bubble-amber" cx="382" cy="146" r="18" />
  <text class="num" x="382" y="152" text-anchor="middle">2</text>
  <text class="title" x="382" y="184" text-anchor="middle">Comparar</text>
  <text class="text" x="382" y="212" text-anchor="middle">CPU, RAM, disco</text>
  <text class="text" x="382" y="232" text-anchor="middle">y sistema operativo</text>

  <rect class="validate" x="514" y="118" width="168" height="124" rx="14" />
  <circle class="bubble-violet" cx="598" cy="146" r="18" />
  <text class="num" x="598" y="152" text-anchor="middle">3</text>
  <text class="title" x="598" y="184" text-anchor="middle">Validar</text>
  <text class="text" x="598" y="212" text-anchor="middle">Software, red, puertos</text>
  <text class="text" x="598" y="232" text-anchor="middle">y licenciamiento</text>

  <rect class="final" x="730" y="118" width="168" height="124" rx="14" />
  <circle class="bubble-green" cx="814" cy="146" r="18" />
  <text class="num" x="814" y="152" text-anchor="middle">4</text>
  <text class="title" x="814" y="184" text-anchor="middle">Registrar</text>
  <text class="text" x="814" y="212" text-anchor="middle">Cumplimiento, riesgos</text>
  <text class="text" x="814" y="232" text-anchor="middle">y observaciones</text>

  <path class="arrow" d="M250 180 H298" />
  <path class="arrow" d="M466 180 H514" />
  <path class="arrow" d="M682 180 H730" />
</svg>
